<?xml version="1.0" encoding="UTF-8"?>
<svg width="291px" height="72px" viewBox="0 0 291 72" version="1.1" xmlns="http://www.w3.org/2000/svg" xmlns:xlink="http://www.w3.org/1999/xlink">
    <!-- Generator: Sketch 53.1 (72631) - https://sketchapp.com -->
    <title>finalHorse</title>
    <desc>Created with Sketch.</desc>
    <g id="dorceeHorse-+-Logo" stroke="none" stroke-width="1" fill="none" fill-rule="evenodd">
        <g id="finalHorse" transform="translate(-2.000000, -34.000000)" fill="#600000">
            <text id="cee" font-family="Andalus" font-size="100" font-weight="normal">
                <tspan x="163" y="110">cee</tspan>
            </text>
            <text id="do" font-family="Andalus" font-size="100" font-weight="normal">
                <tspan x="0" y="110">do </tspan>
            </text>
            <path d="M130.605329,75.9495893 L130.603896,75.9615705 C130.575237,76.206449 130.543906,76.4508864 130.50789,76.6944799 C130.500338,76.7452711 130.493445,76.7908437 130.486319,76.8364529 L130.483685,76.8530648 C130.476947,76.8961014 130.470015,76.9391009 130.462966,76.9820645 L130.460991,76.9942294 C130.453478,77.0396549 130.445732,77.0850435 130.437832,77.1303955 L130.431829,77.1642809 C130.425943,77.1976517 130.419901,77.2310225 130.413782,77.2643563 L130.405185,77.3105536 L130.388377,77.3983542 L130.379547,77.4438532 C130.371182,77.4862282 130.362546,77.5286032 130.353754,77.5708679 L130.347248,77.6014823 C130.340006,77.6358086 130.332648,77.6700984 130.325135,77.7043878 L130.315763,77.7466159 C130.307862,77.7818978 130.299846,77.8171798 130.291635,77.8523882 L130.28633,77.875248 C130.275912,77.9194238 130.265223,77.9635997 130.254263,78.0076656 L130.246518,78.0382065 C130.237688,78.0732311 130.228742,78.1082188 130.219525,78.1431699 L130.209572,78.1805467 C130.201245,78.2118226 130.192687,78.243062 130.18405,78.2742642 L130.1722,78.3170067 C130.160426,78.358757 130.148343,78.4005439 130.135989,78.4421841 L130.128592,78.4667345 C130.117555,78.50356 130.106324,78.5403119 130.094822,78.5770642 L130.084869,78.6084504 C130.073096,78.6456434 130.06109,78.6827628 130.048775,78.7198457 L130.041843,78.7407576 C130.027126,78.7847497 130.0121,78.8287049 129.996686,78.8725502 L129.988554,78.8951894 C129.976006,78.9305081 129.963226,78.9658267 129.950174,79.0010351 L129.934296,79.0434101 C129.923026,79.0733998 129.911524,79.1033893 129.899867,79.1332686 L129.884609,79.1723727 C129.868188,79.2138657 129.851419,79.2553221 129.834263,79.2966679 L129.822877,79.3234968 C129.809245,79.3559856 129.795458,79.3884006 129.781322,79.4208161 L129.759131,79.4710561 C129.746932,79.4985833 129.734501,79.5260373 129.721914,79.553491 L129.703441,79.5936977 C129.68431,79.6348232 129.664868,79.675912 129.644885,79.7168533 L129.635087,79.7365892 C129.617311,79.7727899 129.599186,79.8089171 129.580713,79.8450077 L129.563828,79.877717 C129.546711,79.910757 129.529361,79.9436869 129.511662,79.9766163 L129.495087,80.0074513 C129.472663,80.0487238 129.449892,80.0899595 129.426539,80.1310114 L129.425028,80.1336575 L129.42193,80.1389498 C129.399623,80.1780907 129.376735,80.2171213 129.353538,80.2561153 L129.331928,80.2919852 C129.313687,80.3222321 129.295136,80.3524055 129.276354,80.3825421 L129.253543,80.4190368 C129.228138,80.4592802 129.202345,80.49945 129.175933,80.539473 L129.17512,80.5407225 C129.145764,80.5849719 129.120088,80.6227529 129.094063,80.6604975 L129.068,80.6978743 C129.047939,80.7266143 129.027529,80.7552811 129.006926,80.7839104 L128.978965,80.8226103 C128.950113,80.8621922 128.920718,80.9017006 128.890705,80.9410619 C128.431125,81.7400491 127.945788,82.5182345 127.449962,83.2864282 C127.176933,83.5247282 126.886786,83.7504955 126.606631,83.9746461 C125.480318,85.059602 124.510541,86.305567 123.315987,87.3559029 C122.250437,88.2591912 121.0462,88.9330063 120.17797,90.0282887 C119.153275,92.2643526 116.764094,94.182145 119.515381,97.4740933 C119.48467,97.7646178 119.39792,97.8395185 119.365195,98.0826331 C120.138431,98.4627588 120.638945,99.1713358 121.085123,99.7989501 C119.986963,99.9660245 118.512797,100.223766 117.25241,100.104212 C116.454078,100.289406 118.406686,97.758846 114.581019,96.8852881 C115.562803,94.4130171 116.715259,92.197941 117.658697,89.7589508 C117.66102,89.7519679 117.663344,89.7445072 117.665629,89.7367893 C117.67535,89.7031245 117.683986,89.6653432 117.69208,89.6223435 L117.692274,89.6214614 C117.695798,89.6027546 117.698973,89.5842316 117.702149,89.565084 L117.704357,89.5517798 C117.710553,89.5124184 117.715897,89.4750417 117.721048,89.4353493 C117.751333,89.2017902 117.775925,88.895573 117.803886,88.5740277 L117.763571,88.6001216 L117.753541,88.6066267 L117.723139,88.6262522 L117.695953,88.6438197 L117.682747,88.6523829 L117.642315,88.6785136 L117.638326,88.6810863 L117.602,88.7045708 L117.580777,88.7183528 L117.561646,88.7307015 L117.523189,88.7556193 L117.480976,88.7829628 L117.465795,88.7928491 L117.440777,88.8090935 L117.4084,88.8301524 L117.370293,88.85496 L117.360417,88.8614283 L117.351084,88.8674924 L117.320218,88.8876693 L117.293844,88.9049794 L117.179753,88.9801741 L117.160157,88.9931476 L117.122862,89.0179184 L117.080572,89.0461807 L117.066049,89.05592 L117.040837,89.0728259 L117.009507,89.0939216 L117.001141,89.0995814 L116.961601,89.1263368 L116.953042,89.1321804 L116.903238,89.166176 L116.896771,89.1705862 L116.882635,89.1802887 L116.843249,89.2074485 L116.840616,89.2092861 L116.804057,89.2346449 L116.784732,89.2480962 L116.777218,89.2533517 L116.728964,89.287237 L116.686867,89.3170429 L116.673429,89.3265984 L116.663979,89.3333975 L116.620101,89.3648205 L116.609257,89.3726119 L116.570646,89.4006169 L116.543304,89.42061 L116.532034,89.4288424 L116.508139,89.4464099 L116.493694,89.4571048 L116.479481,89.4676893 L116.431807,89.503302 L116.410507,89.5193258 L116.384017,89.5393924 L116.345096,89.5691248 L116.341417,89.5719547 L116.303619,89.6011725 L116.291226,89.6108016 L116.283906,89.6165349 L116.246186,89.646157 L116.237704,89.6528091 L116.228487,89.6601227 L116.191231,89.6898184 L116.175973,89.7021303 L116.142009,89.7296208 L116.12582,89.7428148 L116.08992,89.7723266 L116.080161,89.7803754 L116.066838,89.7914744 L116.032642,89.8201043 L116.020404,89.8304316 L115.980824,89.8641699 L115.970562,89.8729169 L115.926722,89.9109185 L115.916963,89.9194817 L115.876918,89.9548003 L115.869676,89.9612319 L115.826882,89.9996745 L115.821034,90.0049668 L115.810849,90.0143018 L115.783507,90.0393299 L115.758218,90.0627042 L115.747723,90.0725169 L115.698539,90.118898 L115.682157,90.1345543 L115.658727,90.15712 L115.63429,90.1808986 L115.618257,90.1966284 L115.5786,90.2360265 L115.561056,90.2537042 L115.53538,90.2797614 L115.519501,90.2960058 L115.477288,90.3398876 L115.473725,90.3436731 L115.429731,90.3903849 L115.427795,90.3924798 C115.412303,90.4090916 115.396851,90.4258506 115.381554,90.442683 C114.132009,92.7355293 111.464958,94.6002543 114.124768,98.2627496 C114.070627,98.5675707 113.973343,98.6408175 113.920596,98.8954342 C114.708937,99.3489906 115.184584,100.131147 115.608927,100.824143 C114.436488,100.926607 112.860082,101.099599 111.537765,100.888386 C110.680646,101.030211 112.932422,98.4888465 108.956843,97.3084491 C110.178817,94.7631912 111.561774,92.5011436 112.74072,89.9884968 C112.938734,89.5085156 113.087603,87.2756129 113.478444,86.9391491 C113.740165,86.7139696 114.467201,86.6195904 114.763076,86.4177121 C115.389923,85.990176 117.49004,84.4404162 117.73937,83.8464334 C118.965561,80.6873795 115.575392,74.4281798 115.476169,72.6304786 C115.468656,72.4943125 115.463428,72.3599837 115.46033,72.2272727 L115.460175,72.2206206 C115.457193,72.0911064 115.456341,71.9632467 115.457464,71.8370032 L115.457657,71.8178186 C115.458935,71.696133 115.46215,71.5759536 115.467184,71.4572447 L115.468617,71.4254175 C115.473691,71.3135444 115.480429,71.2029575 115.488794,71.0936939 L115.493171,71.0390438 C115.50142,70.9380861 115.51114,70.8381573 115.522139,70.7394046 C115.524889,70.714744 115.527677,70.6901937 115.53062,70.66568 C115.541193,70.5768504 115.553044,70.4889398 115.565824,70.4018375 C115.571594,70.3625496 115.577636,70.3235189 115.583832,70.2845987 C115.595373,70.212418 115.607649,70.1408985 115.620701,70.0699673 C115.629453,70.0221896 115.638593,69.974743 115.648042,69.9275165 C115.659854,69.8685296 115.672286,69.8099838 115.685143,69.7518419 C115.699589,69.686497 115.714847,69.6218132 115.730571,69.5574973 C115.739749,69.520047 115.749121,69.4827437 115.758764,69.4456242 C115.779987,69.3637409 115.80241,69.2827761 115.825763,69.2025835 L115.840751,69.1516452 C115.869487,69.0552082 115.899772,68.9600201 115.931567,68.8660087 L115.936292,68.8518959 C115.164993,69.6755434 114.451592,70.4822156 114.235069,70.9166986 C113.212043,72.7698057 111.808745,76.3351534 111.701862,76.7068112 C111.412721,77.718998 111.041865,78.7473203 110.254343,79.6124968 C107.841964,82.2628319 105.772515,82.5138085 103.266218,82.1377236 C105.701989,81.2977919 106.342311,80.629164 107.796763,78.341829 C105.13165,81.4613362 103.227026,80.7661028 100.380319,82.0520877 C102.132198,80.3147828 102.832203,81.1951064 104.39238,79.1226611 C102.656418,79.8399878 103.112397,78.6871131 101.691676,79.8893083 C102.940565,77.9234443 104.586602,78.2661954 104.87915,78.0848946 C105.361192,75.9688262 106.757435,74.7580286 108.166306,73.8730813 C105.632942,75.211517 105.846911,74.8309465 104.53486,74.4237758 C107.181307,74.0350132 107.974257,72.6438045 110.099973,70.3880017 C107.960816,71.6348118 108.077114,71.5240054 106.282751,71.2154013 C108.74075,71.1301369 115.847564,64.5850329 117.894455,65.7247728 L117.904369,65.7149967 C120.162883,63.4447539 123.703137,62.2185968 127.303523,61.1098257 C127.905386,60.9244856 128.507793,60.7427469 129.106331,60.5599059 L129.172942,60.5395821 L129.194397,60.5330035 C129.408444,60.4675114 129.62195,60.4019092 129.83464,60.3359393 L129.905163,60.3139984 C129.99838,60.2850011 130.091482,60.2560037 130.184351,60.2268594 L130.208904,60.2191783 C130.306072,60.1886374 130.402891,60.158023 130.499632,60.1272614 L130.581076,60.1013512 C130.682465,60.0690095 130.78366,60.0365575 130.884506,60.003922 C133.698221,59.178914 136.131898,55.6709014 138.414022,52.8925721 C138.902997,52.4408168 139.273773,52.4792959 138.287151,52.3261142 C138.259538,52.1879636 137.110181,52.5088451 137.006776,52.6970518 C136.213826,52.8888603 135.749211,53.3677366 135.132786,53.7273937 C134.665267,54.2759517 134.071381,54.6354972 133.505802,55.0443633 C134.681803,53.8289738 134.918352,52.2457372 136.411879,51.3933478 C137.901921,50.5439346 138.691847,50.372195 140.219883,49.5232602 C141.146559,49.0085851 141.631811,48.0634737 142.450013,47.4333934 C142.535679,47.3670929 142.625101,47.304063 142.718356,47.2470606 C142.817305,47.1861259 142.929538,47.1805763 143.038014,47.1323947 C143.146528,47.084323 143.251131,47.0558033 143.35771,47.0048655 C143.607038,46.8853111 144.164599,46.7989443 144.400527,46.6597276 C143.881268,46.1299109 142.8084,46.6858215 142.18171,47.3904314 C142.219198,46.298678 144.500405,45.4024422 145.335178,45.0100411 C144.38283,44.8646503 144.559506,44.7356139 144.008757,45.0484102 C143.351706,45.4215162 144.12068,45.1504335 141.748306,45.7067861 C144.889347,43.547828 145.438388,42.5037422 149.221034,43.2586279 C150.782414,43.5609867 150.410744,42.9532191 149.041377,42.2910581 C150.274423,41.7887684 153.106574,42.65505 153.986503,42.2196491 C153.701081,41.9623485 153.339948,41.1310899 154.259222,39.9884747 C154.232191,40.5156452 154.380091,42.4778325 155.187719,42.3250186 C155.014606,42.0394926 155.745435,41.2680287 156.116484,41.2087857 C155.907239,41.4892031 155.644588,42.1282839 155.871067,42.4654439 C156.099405,42.8032682 156.468518,43.0311312 156.776753,43.0650869 C156.900565,43.0787954 157.068526,43.1561582 157.133317,43.0664099 C157.965072,41.9139041 158.915639,41.3149946 159.464602,41.1434729 C159.4385,41.7898694 158.968463,43.5001223 159.45643,43.9244223 C159.94556,44.3487606 161.103979,44.9775164 161.709097,45.2330159 C162.261003,45.4661707 162.599639,45.8322177 162.689061,46.403714 C162.732823,46.6885049 162.647196,47.0348945 162.729027,47.3060882 C163.556324,48.4284916 164.332658,49.6051102 164.919266,50.9100261 C165.079133,51.2601258 165.518655,51.219625 165.737462,51.4630696 C165.712444,52.1912383 165.59723,52.9658203 165.520511,53.4492943 C165.484378,53.6781123 165.488173,53.8597038 165.261733,53.9684162 C165.087265,54.0518067 164.901799,54.00594 164.747315,53.9883358 C164.541633,53.9154201 164.454263,54.0125553 164.398224,54.121819 C164.31434,54.2047684 164.241843,54.300507 164.08577,54.3229261 C163.922185,54.3496448 163.490139,54.2855493 163.326518,54.2318915 C163.046866,54.1406729 162.626283,53.6370955 162.405498,53.3967005 C162.160082,53.1328213 161.983097,52.7063513 161.653913,52.5214525 C161.275313,52.309614 160.868015,52.5772421 160.472178,52.5765071 C160.099232,52.575772 159.709168,52.4874936 159.36662,52.3609201 C159.362863,52.3441244 159.359029,52.3274757 159.357093,52.3105331 C158.786249,52.1662078 158.278181,52.1296033 157.878553,51.6660499 C157.713109,51.4729919 157.570282,51.3113567 157.387642,51.1394672 C157.272273,51.0313059 157.052533,50.6269605 156.998856,50.5837769 C156.994983,50.5806897 156.992001,50.5792932 156.989949,50.5801752 L156.998856,50.5837769 L157.014696,50.5901717 C156.795381,50.283219 156.353619,50.5429087 156.087947,50.7333208 C155.901474,50.8678697 155.741683,50.9975311 155.564698,51.1394668 C155.246978,51.3909606 154.953885,51.6319068 154.676016,51.9219146 C154.046228,52.5759537 153.3573,53.267403 152.820731,53.9901346 C151.199516,56.1706651 152.756869,57.2282449 152.756869,59.5946043 C152.756947,60.0619428 152.155549,61.0756018 152.77968,61.3378616 C153.236472,61.5302584 154.2315,61.1447298 154.659673,60.9489889 C154.659673,60.9488787 155.274317,60.8207614 155.483604,60.7665519 C155.702493,60.7098801 155.902288,60.6537599 156.11734,60.5859894 C156.541756,60.4537923 156.937474,60.3546357 157.348415,60.1889209 C158.064062,59.9011893 159.082013,59.3110634 159.89448,59.4958506 C160.33795,59.5971022 161.335033,60.6160536 161.25703,61.1328562 C161.257069,61.1328562 161.458684,62.6423724 161.481495,63.0590671 C161.508256,63.579549 161.542452,64.0931186 161.660417,64.5940515 C161.845031,65.3783009 162.12662,66.1317198 162.36828,66.9000942 C162.570012,67.5423718 162.37587,67.9308028 161.921053,68.4081383 C161.62622,68.7174428 161.772611,69.1556365 161.73276,69.5607557 C161.670022,70.2166337 161.18461,70.9474437 160.813561,71.5162933 C160.813754,71.516183 159.370298,70.8944135 159.159079,70.6865817 C158.867964,70.3972701 158.354206,69.9689256 158.354206,69.5281606 C158.354206,69.0494289 159.166673,68.6933417 159.166673,68.6933417 C159.159082,68.4713595 159.084842,67.9818612 159.062031,67.9816752 C158.84322,67.978441 158.968775,67.285921 159.062031,67.1883854 C159.256172,66.9862861 159.490164,67.0561883 159.532029,66.722113 C159.560649,66.4882599 159.532029,66.2351122 159.532029,65.9997906 C159.532145,65.1812134 159.414065,64.3752799 159.3722,63.5619589 C159.327354,62.5302193 158.839851,62.9441237 158.749962,63.6578448 C158.69098,64.1540704 158.810842,64.6452598 158.529215,65.0485401 C158.304711,65.3695689 158.201928,65.7112527 158.032611,66.0599563 C157.868948,66.3957961 157.577795,66.7327775 157.476948,67.0899686 C157.381871,67.4263596 157.307592,67.7702092 157.267626,68.1166009 C157.222043,68.4952565 157.305695,68.8745 157.271382,69.2450364 C157.220107,69.7666939 157.081152,70.0155792 156.580713,70.1876908 C156.017458,70.3819249 156.106842,70.7544782 156.106842,71.2709938 C156.129691,71.2919057 155.210727,72.2728913 154.822401,72.1092354 C154.428619,71.9427122 153.90076,71.394816 153.807429,71.0280264 C153.712353,70.6520536 153.480181,69.864753 153.716109,69.5096931 C153.836087,69.3314461 153.978683,69.345191 154.180414,69.3200897 C154.772248,69.2468062 155.150924,68.9058212 155.177571,68.3337377 C155.192752,67.9974939 155.036719,67.7873109 155.242246,67.5249342 C155.487779,67.2108884 155.822616,67.0373456 155.997668,66.6556387 C156.094797,66.4430651 156.442919,65.567781 156.298387,65.3634038 C156.151804,65.1591361 155.819482,65.2457239 155.598813,65.2172046 C155.23156,65.169133 154.883323,65.126905 154.489385,65.126905 C153.705424,65.1268682 152.710664,65.2367936 151.949513,65.4331227 C149.23254,66.1346434 146.718077,68.6750171 144.185957,69.949283 C142.398292,70.8445249 139.458753,70.203129 137.553065,70.6545558 C135.232393,71.2048411 134.280118,71.0706249 132.313609,72.5484214 C132.265626,72.5845119 132.218107,72.6211171 132.171208,72.6581261 L132.166135,72.6621321 C132.119971,72.69859 132.07435,72.7354889 132.029194,72.772829 C131.979507,72.8139912 131.935009,72.8516621 131.890976,72.8897373 L131.886135,72.893927 C131.842682,72.9315978 131.799656,72.9696361 131.757133,73.0080785 L131.747761,73.0166049 C131.707988,73.0526587 131.668524,73.0890801 131.629526,73.1258318 L131.612408,73.141966 C131.575772,73.1766599 131.539523,73.2116477 131.503545,73.2468927 L131.479302,73.270708 C131.446848,73.3027557 131.414704,73.335024 131.382793,73.3675495 L131.34604,73.4051835 C131.31653,73.4355774 131.287252,73.466155 131.258167,73.4969165 L131.21487,73.5431137 C131.191556,73.5681051 131.168397,73.5932435 131.145392,73.6184923 L131.091987,73.6774792 C131.070919,73.7009638 131.050006,73.7245218 131.029171,73.7481532 C131.007832,73.7723728 130.986609,73.7967393 130.965502,73.8211428 L130.91717,73.8775202 C130.890487,73.9088696 130.863997,73.9403661 130.837701,73.9719727 L130.814271,74.000235 C130.738319,74.6479793 130.681157,75.3002538 130.605329,75.9495893 Z" id="Path" transform="translate(133.058891, 70.488475) rotate(-15.000000) translate(-133.058891, -70.488475) "></path>
        </g>
    </g>
</svg>