<?xml version="1.0" encoding="UTF-8"?>
<svg width="355px" height="167px" viewBox="0 0 355 167" version="1.1" xmlns="http://www.w3.org/2000/svg" xmlns:xlink="http://www.w3.org/1999/xlink">
    <!-- Generator: Sketch 52.5 (67469) - http://www.bohemiancoding.com/sketch -->
    <title>horse-4</title>
    <desc>Created with Sketch.</desc>
    <g id="Page-1" stroke="none" stroke-width="1" fill="none" fill-rule="evenodd">
        <g id="horse-4" fill="#600000">
            <text id="dorcee-copy-3" font-family="Andalus" font-size="100" font-weight="normal">
                <tspan x="84" y="171">dorcee</tspan>
            </text>
            <path d="M78.5843974,92.5437192 L78.5843974,92.5438192 C78.388298,94.3062069 78.2406992,96.0810021 78.044899,97.8478004 L78.0411991,97.8804003 C77.9671992,98.5466983 77.8862989,99.2117961 77.7933004,99.8745974 L77.7913004,99.8885974 C77.7738004,100.012797 77.7560004,100.136797 77.7376006,100.260897 L77.7308006,100.306096 C77.7134007,100.423196 77.6955006,100.540195 77.6773008,100.657096 L77.6722008,100.690196 C77.6528008,100.813796 77.6328009,100.937295 77.6124009,101.060695 L77.5969009,101.152894 C77.581701,101.243694 77.5661011,101.334494 77.550301,101.425193 L77.5281011,101.550893 L77.4847013,101.789792 L77.4619014,101.913592 C77.4403015,102.028892 77.4180015,102.144191 77.3953015,102.25919 L77.3785016,102.34249 C77.3598017,102.43589 77.3408017,102.52919 77.3214017,102.622489 L77.2972019,102.737389 C77.2768019,102.833389 77.2561021,102.929389 77.2349021,103.025188 L77.2212022,103.087388 C77.1943023,103.207588 77.1667024,103.327787 77.1384024,103.447688 L77.1184024,103.530787 C77.0956025,103.626087 77.0725026,103.721286 77.0487027,103.816386 L77.0230028,103.918085 C77.0015028,104.003185 76.979403,104.088185 76.957103,104.173084 L76.9265032,104.289384 C76.8961033,104.402984 76.8649033,104.516683 76.8330034,104.629983 L76.8139035,104.696783 C76.7854035,104.796983 76.7564036,104.896982 76.7267038,104.996983 L76.7010039,105.082382 C76.6706041,105.183582 76.6396041,105.284582 76.6078043,105.385482 L76.5899043,105.442381 C76.5519045,105.562081 76.5131046,105.68168 76.4733047,105.80098 L76.4523047,105.86258 C76.4199048,105.95868 76.386905,106.05478 76.353205,106.150579 L76.3122051,106.265879 C76.2831051,106.347479 76.2534053,106.429078 76.2233054,106.510378 L76.1839054,106.616777 C76.1415056,106.729677 76.0982057,106.842477 76.0539058,106.954976 L76.0245059,107.027976 C75.989306,107.116376 75.9537061,107.204575 75.9172062,107.292775 L75.8599063,107.429475 C75.8284064,107.504374 75.7963065,107.579075 75.7638067,107.653774 L75.7161069,107.763174 C75.666707,107.875074 75.6165072,107.986874 75.5649073,108.098272 L75.5396074,108.151972 C75.4937075,108.250472 75.4469076,108.348772 75.3992078,108.446972 L75.355608,108.535972 C75.3114081,108.625871 75.2666082,108.715471 75.2209083,108.80507 L75.1781085,108.88897 C75.1202086,109.00127 75.0614089,109.113469 75.0011091,109.225169 L74.9972091,109.232369 L74.9892091,109.246769 C74.9316093,109.353268 74.8725095,109.459468 74.8126103,109.565568 L74.7568104,109.663168 C74.7097106,109.745467 74.6618106,109.827567 74.6133109,109.909567 L74.554411,110.008866 C74.4888113,110.118366 74.4222114,110.227665 74.3540123,110.336565 L74.3519123,110.339965 L74.3409123,110.357065 C74.2761126,110.460365 74.2098128,110.563164 74.1426134,110.665865 L74.0753136,110.767564 C74.0235138,110.845764 73.970814,110.923765 73.9176138,111.001663 L73.8454141,111.106963 C73.7709143,111.214662 73.6950141,111.322162 73.6175149,111.429262 C72.4308185,113.603252 71.1776162,115.720642 69.8973284,117.810846 C69.1923299,118.459244 68.443133,119.073542 67.7197372,119.68344 C64.8114476,122.635532 62.3073566,126.025719 59.22286,128.883613 C56.4714719,131.3414 53.3619723,133.174805 51.1200877,136.154995 C48.4741924,142.239174 42.3050112,147.457358 49.4091955,156.414528 C49.3298957,157.205026 49.1058968,157.408826 49.021397,158.070324 C51.0179946,159.104621 52.3103863,161.032611 53.4624775,162.740308 C50.6268832,163.194906 46.8203936,163.896203 43.5659082,163.570905 C41.504511,164.074804 46.5464015,157.189321 36.6680242,154.812429 C39.2031195,148.085546 42.1789129,142.058473 44.614994,135.422144 C44.620994,135.403144 44.6269939,135.382845 44.6328939,135.361845 L44.6342939,135.356645 C44.6579939,135.270245 44.6802938,135.167444 44.7011937,135.050445 L44.7012937,135.050145 L44.7016937,135.048045 L44.7022937,135.044745 C44.7107937,134.997145 44.7189937,134.946745 44.7271936,134.894646 L44.7328936,134.858446 L44.7335936,134.853346 L44.7345936,134.846546 C44.7488935,134.751346 44.7626936,134.649647 44.7759935,134.541647 L44.7765935,134.536547 C44.8541932,133.906148 44.9176931,133.072952 44.9898928,132.198048 L44.8857932,132.269048 L44.8598933,132.286748 L44.7813935,132.340148 L44.7111937,132.387948 L44.6770939,132.411248 L44.5726942,132.482348 L44.5623942,132.489348 L44.4685946,132.553247 L44.4137947,132.590747 L44.3643949,132.624347 L44.2650951,132.692147 L44.2602951,132.695447 L44.1560954,132.766547 L44.1168955,132.793447 L44.0522957,132.837647 L43.968696,132.894946 L43.8702963,132.962446 L43.8447964,132.980046 L43.8206965,132.996546 L43.7409967,133.051446 L43.6728969,133.098546 L43.378298,133.303145 L43.3276982,133.338445 L43.2313985,133.405845 L43.2249985,133.410445 L43.1221988,133.482745 L43.0846989,133.509245 L43.0195991,133.555245 L42.9386993,133.612645 L42.9170994,133.628045 L42.8149997,133.700844 L42.7928997,133.716744 L42.6643002,133.809244 L42.6476002,133.821244 L42.6111003,133.847644 L42.5094006,133.921544 L42.5026006,133.926544 L42.4082008,133.995543 L42.3583009,134.032143 L42.338901,134.046443 L42.2143013,134.138643 L42.2063013,134.144543 L42.1056016,134.219743 L42.0709018,134.245743 L42.046502,134.264243 L41.9332023,134.349742 L41.9279023,134.353742 L41.9052023,134.370942 L41.8055026,134.447142 L41.7349028,134.501542 L41.7058028,134.523942 L41.6441031,134.571742 L41.6068032,134.600842 L41.5701032,134.629642 L41.4470036,134.726541 L41.3920038,134.770141 L41.323604,134.824741 L41.311304,134.834641 L41.2231042,134.905641 L41.2136042,134.913341 L41.1160045,134.99284 L41.0840045,135.01904 L41.0651046,135.03464 L40.9677049,135.11524 L40.9458049,135.13334 L40.9220051,135.15324 L40.8258053,135.23404 L40.8082053,135.24894 L40.7864054,135.26754 L40.6987057,135.34234 L40.6569058,135.378239 L40.564206,135.458539 L40.539006,135.480439 L40.5358061,135.483139 L40.5046062,135.510639 L40.4163065,135.588539 L40.3847065,135.616639 L40.2825068,135.708439 L40.2667069,135.722539 L40.2560069,135.732239 L40.1428073,135.835638 L40.1176073,135.858938 L40.0142076,135.955038 L39.9955077,135.972538 L39.885008,136.077137 L39.869908,136.091537 L39.8436082,136.116937 L39.7730084,136.185037 L39.7077086,136.248637 L39.6806087,136.275337 L39.5536091,136.401536 L39.5113092,136.444136 L39.4508094,136.505536 L39.3877095,136.570236 L39.3463096,136.613036 L39.2439099,136.720235 L39.19861,136.768335 L39.1323102,136.839235 L39.0913103,136.883435 L38.9823106,137.002835 L38.9731106,137.013135 L38.859511,137.140234 L38.854511,137.145934 C38.8145111,137.191134 38.7746112,137.236734 38.7351114,137.282534 C35.5086225,143.521214 28.6219457,148.595006 35.4899245,158.560409 C35.3501249,159.389807 35.0989258,159.589107 34.9627266,160.281901 C36.9983254,161.515998 38.2265103,163.644193 39.3222182,165.529788 C36.294828,165.808587 32.2243389,166.279286 28.8099441,165.704588 C26.59675,166.090487 32.4111313,159.175604 22.1456626,155.963822 C25.3009601,149.038346 28.8719383,142.883467 31.9161322,136.046724 C32.4274302,134.740727 32.8118289,128.665149 33.8210327,127.749654 C34.4968302,127.136955 36.374132,126.880156 37.1381196,126.330859 C38.7567219,125.167562 44.1794999,120.950769 44.8233025,119.334582 C47.9894891,110.739009 39.2356259,93.7081475 38.9794208,88.8167234 C38.9600209,88.4462246 38.946521,88.0807249 38.938521,87.7196272 L38.938121,87.7015273 C38.930421,87.3491278 38.9282211,87.0012301 38.931121,86.6577299 L38.931621,86.6055301 C38.934921,86.2744317 38.943221,85.9474315 38.956221,85.6244327 L38.959921,85.537833 C38.973021,85.2334338 38.990421,84.9325342 39.0120209,84.6352354 L39.0233208,84.4865362 C39.0446208,84.211837 39.0697207,83.9399374 39.0981207,83.6712381 C39.1052206,83.6041383 39.1124206,83.5373384 39.1200206,83.4706383 C39.1473205,83.2289391 39.1779205,82.9897401 39.2109204,82.7527407 C39.2258204,82.645841 39.2414204,82.5396409 39.2574203,82.4337418 C39.2872201,82.2373429 39.31892,82.0427431 39.35262,81.849744 C39.3752199,81.7197444 39.39882,81.5906453 39.4232198,81.4621451 C39.4537197,81.3016457 39.4858196,81.1423465 39.5190196,80.9841464 C39.5563195,80.8063472 39.5957193,80.6303471 39.6363192,80.4553476 C39.6600191,80.3534479 39.684219,80.2519483 39.7091189,80.1509485 C39.7639187,79.9281497 39.8218186,79.7078498 39.8821184,79.4896511 L39.9208183,79.3510515 C39.9950181,79.0886528 40.0732181,78.8296524 40.1553174,78.5738537 L40.1675174,78.5354539 C38.1759233,80.7765432 36.3338267,82.9714441 35.7747365,84.1536431 C33.1331506,89.1958228 29.5096502,98.8968942 29.2336625,99.90815 C28.4870642,102.662242 27.5294658,105.460238 25.4959782,107.814325 C19.2668997,115.025709 13.9233099,115.7086 7.45172083,114.685298 C13.7412029,112.3999 15.3945982,110.580608 19.1501852,104.356924 C12.2685118,112.844893 7.35052294,110.95321 -4.74314127e-05,114.452288 C4.52353289,109.725198 6.33103882,112.1205 10.35962,106.481515 C5.8771378,108.433313 7.05453575,105.296418 3.38604722,108.567511 C6.61084418,103.218527 10.8611266,104.15113 11.6165244,103.657822 C12.8612208,97.9001427 16.4665034,94.6056439 20.1043925,92.1977617 C13.5629135,95.8395553 14.1154095,94.8040484 10.7275216,93.6961644 C17.5609966,92.6383673 19.6084968,88.8529821 25.097376,82.7150944 C19.5737904,86.1075808 19.874087,85.806084 15.2408058,84.9663932 C21.5876834,84.7343943 39.9384122,66.9256064 45.2237532,70.0267621 L45.2493531,70.0001621 C51.0811309,63.822984 60.2225337,60.4866929 69.519204,57.4698014 L69.521804,57.4689014 C71.0732928,56.9655033 72.6287874,56.4710046 74.1742894,55.9735066 L74.3462882,55.9182069 L74.4016881,55.9003069 C74.9543864,55.7221072 75.505685,55.5436082 76.0548809,55.3641085 L76.2369807,55.3044087 C76.4776793,55.2255089 76.71808,55.1466091 76.957879,55.0673095 L77.0212788,55.0464096 C77.2721782,54.9633099 77.522178,54.8800101 77.7719769,54.79631 L77.9822756,54.7258101 C78.2440741,54.6378103 78.5053738,54.5495106 78.7657725,54.4607116 C86.0311533,52.2159203 92.3152269,42.6708539 98.2079722,35.1112068 C99.4705684,33.8820111 100.427963,33.9867099 97.8803733,33.5699129 C97.8090735,33.1940144 94.8412841,34.0671115 94.5742767,34.5792093 C92.5267765,35.1011072 91.3270797,36.4040973 89.7353894,37.3827002 C88.5281931,38.8752896 86.9947024,39.8535888 85.5343032,40.9660859 C88.5708906,37.6590928 89.1816932,33.3512124 93.0381743,31.0319181 C96.8856608,28.7207221 98.9253521,28.2534302 102.870942,25.9435356 C105.263741,24.5431393 106.516727,21.9715546 108.629431,20.2571485 C108.850631,20.0767493 109.081531,19.9052494 109.322329,19.7501496 C109.577828,19.5843502 109.867628,19.5692501 110.147727,19.4381513 C110.427925,19.3073516 110.698024,19.2297513 110.973224,19.091153 C111.617022,18.7658534 113.056718,18.5308554 113.665915,18.152056 C112.32512,16.7104604 109.554834,18.2230557 107.936637,20.1402517 C108.033436,17.1696642 113.923812,14.731067 116.079307,13.66337 C113.620218,13.2677712 114.076419,12.9166718 112.654312,13.7677697 C110.957722,14.7829661 112.943312,14.0453683 106.817531,15.5591661 C114.928112,9.68478626 116.345808,6.84389921 126.113096,8.89789242 C130.144786,9.72059018 129.185084,8.0668955 125.649198,6.26519999 C128.833085,4.89850356 136.146071,7.25559732 138.418165,6.07090091 C137.681167,5.37080328 136.748675,3.10900444 139.122362,2.54142922e-05 C139.052563,1.43442089 139.434462,6.77340052 141.519862,6.35760416 C141.072863,5.58070719 142.959957,3.48160587 143.918055,3.32040941 C143.377757,4.08340649 142.699559,5.82230233 143.284356,6.73969199 C143.873955,7.65888927 144.827053,8.27888902 145.622956,8.37128018 C145.942655,8.40858009 146.376354,8.61907907 146.543653,8.37488017 C148.691353,5.23898927 151.145843,3.60939669 152.563336,3.14269771 C152.495936,4.90149908 151.28224,9.55498232 152.542236,10.7094741 C153.805233,11.86407 156.796423,13.5748725 158.358917,14.2700693 C159.784012,14.9044679 160.658414,15.9004572 160.889312,17.4554601 C161.002312,18.2303571 160.781213,19.1728597 160.992512,19.9107598 C163.128701,22.9647437 165.133296,26.1662441 166.647996,29.7168323 C167.060795,30.6694301 168.195696,30.5592302 168.760686,31.2216267 C168.696087,33.2029246 168.398588,35.3105101 168.200489,36.6260104 C168.107189,37.2486088 168.116989,37.742707 167.53229,38.0385062 C167.081792,38.2654061 166.602894,38.1406058 166.203995,38.092706 C165.672897,37.8943073 165.447297,38.1586058 165.302598,38.4559049 C165.085998,38.6816046 164.8988,38.9421031 164.4958,39.0031038 C164.073401,39.0758036 162.957803,38.9014041 162.535311,38.7554047 C161.813214,38.5072052 160.727212,37.1370049 160.157118,36.4829062 C159.523419,35.7649088 159.06642,34.6045126 158.216426,34.1014153 C157.23883,33.5250168 156.187132,34.253215 155.165031,34.2512151 C154.202034,34.2492151 153.194839,34.0090155 152.310333,33.6646173 C152.300633,33.6189174 152.290733,33.5736176 152.285733,33.5275177 C150.811741,33.1348184 149.499841,33.0352199 148.46795,31.7739223 C148.040751,31.2486246 147.671953,30.8088259 147.200353,30.3411262 C146.902454,30.0468266 146.335056,28.94663 146.196456,28.8291303 C146.186456,28.8207303 146.178756,28.8169303 146.173456,28.8193303 L146.196456,28.8291303 L146.237356,28.8465302 C145.671057,28.0113323 144.530368,28.7179306 143.844369,29.2360292 C143.36287,29.6021276 142.950271,29.9549276 142.493273,30.3411252 C141.672876,31.0254228 140.916072,31.6810211 140.198577,32.470113 C138.572382,34.2497093 136.79348,36.1310963 135.407989,38.0976006 C131.221798,44.0306775 135.243089,46.908281 135.243089,53.3469858 C135.243289,54.6185825 133.6904,57.3766805 135.301989,58.0902717 C136.481485,58.6137705 139.050779,57.5647729 140.156378,57.0321753 C140.156378,57.0318753 141.74347,56.6832769 142.283877,56.5357764 C142.849075,56.3815761 143.364973,56.2288769 143.920266,56.0444778 C145.016163,55.6847785 146.03796,55.4149801 147.099063,54.9640812 C148.946958,54.1811829 151.575442,52.57549 153.673339,53.0782836 C154.818436,53.3537824 157.393034,56.1262807 157.191621,57.5324657 C157.191721,57.5324657 157.712319,61.639758 157.77122,62.7735561 C157.84032,64.1897524 157.928619,65.5871408 158.233219,66.9501454 C158.709918,69.0840354 159.437016,71.1340374 160.061014,73.2247326 C160.581913,74.9723267 160.080614,76.0292214 158.906217,77.3280192 C158.144919,78.169616 158.522919,79.3619116 158.420019,80.4642138 C158.25802,82.2488135 157.004624,84.2372985 156.046525,85.7850998 C156.047025,85.7847998 152.319831,84.0930069 151.774435,83.5275106 C151.022738,82.7403131 149.696148,81.5748165 149.696148,80.3755246 C149.696148,79.0729279 151.794045,78.1040384 151.794045,78.1040384 C151.774445,77.5000397 151.582745,76.1681479 151.523846,76.1676418 C150.958847,76.1588418 151.283046,74.2745414 151.523846,74.0091536 C152.025144,73.4592549 152.629342,73.6494543 152.737442,72.7404577 C152.811342,72.104159 152.737442,71.4153612 152.737442,70.7750669 C152.737742,68.5477734 152.432844,66.3548825 152.324743,64.1418909 C152.208944,61.3345967 150.950147,62.4608028 150.718043,64.40279 C150.565742,65.7529865 150.875242,67.0894797 150.148045,68.1867784 C149.568346,69.0602761 149.302947,69.9899749 148.865748,70.9387738 C148.443149,71.8525714 147.691352,72.7694751 147.430952,73.7413682 C147.185452,74.6566654 146.993654,75.592257 146.890454,76.5347654 C146.772755,77.565062 146.988754,78.596958 146.900154,79.6051626 C146.767755,81.0245577 146.408956,81.7017578 145.116755,82.1700619 C143.662357,82.6985599 143.893158,83.7122524 143.893158,85.1176565 C143.952158,85.1745564 141.579273,87.8437524 140.576563,87.3984556 C139.559766,86.9453572 138.196764,85.4545683 137.955772,84.4565587 C137.710273,83.433562 137.110774,81.2913698 137.719973,80.3252756 C138.029772,79.8402777 138.397971,79.8776767 138.918869,79.8093775 C140.447061,79.6099781 141.424854,78.6821808 141.493659,77.12558 C141.532859,76.2106834 141.12996,75.6387896 141.660659,74.9248802 C142.294657,74.0703828 143.15925,73.5981843 143.611256,72.5595857 C143.862056,71.9811872 144.760953,69.5995981 144.387754,69.0435013 C144.009256,68.4877025 143.151157,68.7233021 142.581362,68.6457031 C141.633065,68.5149035 140.733871,68.400004 139.716672,68.400004 C137.692381,68.399904 135.12378,68.6990034 133.158389,69.2332018 C126.142807,71.1419924 119.650134,78.0541784 113.111866,81.5213702 C108.49588,83.9572632 100.905604,82.2120682 95.9848677,83.4403702 C89.9925876,84.9376593 87.5336871,84.5724663 82.4559045,88.5934511 C82.3320049,88.6916508 82.2093059,88.7912512 82.0882053,88.8919502 L82.0751054,88.9028502 C81.9559057,89.0020498 81.8381059,89.1024492 81.7215071,89.2040491 L81.7181071,89.2070491 L81.7158071,89.2089491 L81.7094071,89.2146491 C81.5932074,89.3160488 81.4783078,89.4185488 81.3646084,89.5221486 L81.3521084,89.5335486 C81.2399088,89.6360483 81.1288093,89.7395481 81.01901,89.8441472 L80.9948102,89.867347 C80.8921105,89.9654468 80.7902105,90.064547 80.6895116,90.1645461 L80.6453117,90.208446 C80.550712,90.3028458 80.4571123,90.3980452 80.3642121,90.4939446 L80.3016123,90.5587444 C80.2178126,90.6459441 80.1348122,90.7337438 80.0524136,90.8222436 L79.9575139,90.9246433 C79.8813141,91.007343 79.8057142,91.0905425 79.730614,91.1742426 L79.6188143,91.2999421 C79.5586145,91.367942 79.4988147,91.4363418 79.4394144,91.5050421 L79.3015148,91.6655416 C79.247115,91.7294414 79.1931151,91.7935411 79.1393148,91.8578407 C79.084215,91.9237405 79.0294151,91.9900403 78.9749152,92.0564405 L78.8501156,92.2098396 C78.7812158,92.2951393 78.712816,92.3808391 78.6449158,92.4668385 L78.6378158,92.4758385 L78.5844159,92.5437383 L78.5843974,92.5437192 Z" id="Path"></path>
        </g>
    </g>
</svg>